<svg width="184" height="34" viewBox="0 0 184 34" fill="none" xmlns="http://www.w3.org/2000/svg">
<path d="M19.7276 7.31176V3.79691H12.0362V12.0362H3.79691V19.1852H11.4667C13.8099 19.1852 18.3174 18.5506 22.1197 13.9672C21.4091 16.9234 18.019 22.7869 10.1269 22.9713C10.0889 22.9821 10.051 22.9821 10.0184 22.9821H0V8.23929H8.23929V0H23.5246V7.31176H19.7276Z" fill="#1A76D1"/>
<path d="M12.0381 24.0074L12.0381 27.5222L19.7295 27.5222L19.7296 19.283L27.9688 19.283L27.9688 12.1339L20.2991 12.1339C17.9559 12.1339 13.4484 12.7685 9.64605 17.352C10.3566 14.3958 13.7467 8.53228 21.6389 8.34786C21.6768 8.33701 21.7148 8.33701 21.7473 8.33701L31.7657 8.33701L31.7657 23.0799L23.5265 23.0799L23.5265 31.3192L8.24119 31.3192L8.24119 24.0074L12.0381 24.0074Z" fill="#1A76D1"/>
<path d="M129.227 7.38727C130.733 7.38727 132.088 7.75286 133.292 8.48404C134.496 9.21522 135.432 10.2797 136.098 11.6776C136.787 13.0539 137.131 14.6776 137.131 16.5485C137.131 18.4195 136.787 20.0539 136.098 21.4517C135.432 22.8281 134.496 23.8818 133.292 24.613C132.088 25.3442 130.733 25.7098 129.227 25.7098C127.722 25.7098 126.432 25.355 125.356 24.6453C124.303 23.9141 123.55 22.9464 123.098 21.7421V34.0001H118.55V7.61308H123.098V11.3227C123.55 10.1184 124.303 9.16146 125.356 8.45179C126.432 7.74211 127.722 7.38727 129.227 7.38727ZM127.808 11.355C126.432 11.355 125.292 11.8281 124.389 12.7744C123.507 13.6991 123.066 14.9571 123.066 16.5485C123.066 18.1184 123.507 19.3765 124.389 20.3227C125.292 21.2474 126.432 21.7098 127.808 21.7098C129.227 21.7098 130.367 21.2582 131.227 20.355C132.088 19.4302 132.518 18.1614 132.518 16.5485C132.518 14.9356 132.088 13.6668 131.227 12.7421C130.367 11.8174 129.227 11.355 127.808 11.355Z" fill="#2C2D3F"/>
<path d="M144.575 1.6131V25.484H140.027V1.6131H144.575Z" fill="#2C2D3F"/>
<path d="M165.464 7.61308V25.484H160.916V21.8711C160.442 23.0754 159.658 24.0216 158.561 24.7098C157.485 25.3765 156.238 25.7098 154.819 25.7098C152.754 25.7098 151.109 25.0324 149.883 23.6775C148.658 22.3227 148.045 20.4302 148.045 18.0001V7.61308H152.561V17.484C152.561 18.9034 152.926 20.0109 153.658 20.8066C154.389 21.5808 155.378 21.9679 156.625 21.9679C157.937 21.9679 158.98 21.5485 159.754 20.7098C160.528 19.8711 160.916 18.6668 160.916 17.0969V7.61308H165.464Z" fill="#2C2D3F"/>
<path d="M175.438 7.38727C177.61 7.38727 179.352 7.93566 180.664 9.03243C181.976 10.1292 182.793 11.5916 183.116 13.4195H178.858C178.686 12.5593 178.298 11.8711 177.696 11.355C177.094 10.8389 176.309 10.5808 175.341 10.5808C174.567 10.5808 173.965 10.7636 173.535 11.1292C173.105 11.4948 172.89 11.9894 172.89 12.6131C172.89 13.1077 173.062 13.5055 173.406 13.8066C173.75 14.1077 174.18 14.3442 174.696 14.5163C175.212 14.6883 175.954 14.8926 176.922 15.1292C178.277 15.4303 179.374 15.7528 180.212 16.0969C181.073 16.4195 181.804 16.9464 182.406 17.6776C183.03 18.3872 183.341 19.355 183.341 20.5808C183.341 22.1077 182.739 23.3442 181.535 24.2904C180.352 25.2367 178.75 25.7098 176.729 25.7098C174.406 25.7098 172.546 25.1937 171.148 24.1614C169.75 23.1076 168.901 21.613 168.6 19.6776H172.954C173.062 20.5593 173.449 21.2582 174.116 21.7743C174.782 22.2689 175.653 22.5163 176.729 22.5163C177.503 22.5163 178.094 22.3335 178.503 21.9679C178.911 21.5808 179.116 21.0861 179.116 20.484C179.116 19.9679 178.933 19.5485 178.567 19.2259C178.223 18.9034 177.782 18.6561 177.245 18.484C176.729 18.312 175.987 18.1077 175.019 17.8711C173.686 17.57 172.599 17.269 171.761 16.9679C170.944 16.6453 170.234 16.1399 169.632 15.4518C169.051 14.7636 168.761 13.8174 168.761 12.6131C168.761 11.0647 169.352 9.80662 170.535 8.83888C171.718 7.87114 173.352 7.38727 175.438 7.38727Z" fill="#2C2D3F"/>
<path d="M65.2249 2.96773V25.4838H60.7088V9.77416L54.9346 25.4838H50.9992L45.225 9.83868V25.4838H40.6766V2.96773H46.1927L53.0314 19.9032L59.7411 2.96773H65.2249Z" fill="#1A76D1"/>
<path d="M85.8272 15.8709C85.8272 16.3225 85.7734 16.8387 85.6659 17.4193H72.5692C72.6337 19.0107 73.0638 20.1827 73.8595 20.9354C74.6552 21.6881 75.6444 22.0644 76.8272 22.0644C77.881 22.0644 78.7519 21.8064 79.4401 21.2903C80.1498 20.7741 80.6014 20.0752 80.7949 19.1935H85.6014C85.3648 20.4408 84.8594 21.5591 84.0852 22.5483C83.3111 23.5376 82.3111 24.3117 81.0853 24.8709C79.881 25.43 78.5369 25.7096 77.053 25.7096C75.3111 25.7096 73.7627 25.344 72.4079 24.6128C71.053 23.8601 69.9993 22.7956 69.2466 21.4193C68.4939 20.0429 68.1176 18.4193 68.1176 16.5483C68.1176 14.6774 68.4939 13.0537 69.2466 11.6774C69.9993 10.2795 71.053 9.21502 72.4079 8.48384C73.7627 7.75266 75.3111 7.38707 77.053 7.38707C78.8164 7.38707 80.3541 7.75266 81.6659 8.48384C82.9992 9.21502 84.0207 10.2258 84.7304 11.5161C85.4616 12.7849 85.8272 14.2365 85.8272 15.8709ZM81.2465 15.4193C81.3111 13.9569 80.924 12.8494 80.0853 12.0967C79.2681 11.344 78.2573 10.9677 77.053 10.9677C75.8272 10.9677 74.795 11.344 73.9562 12.0967C73.1175 12.8494 72.6552 13.9569 72.5692 15.4193H81.2465Z" fill="#1A76D1"/>
<path d="M95.7334 7.38707C97.2388 7.38707 98.5183 7.74191 99.5721 8.45159C100.647 9.16126 101.422 10.1182 101.895 11.3225V1.6129H106.411V25.4838H101.895V21.7419C101.422 22.9462 100.647 23.9139 99.5721 24.6451C98.5183 25.3548 97.2388 25.7096 95.7334 25.7096C94.228 25.7096 92.8732 25.344 91.6689 24.6128C90.4646 23.8816 89.5184 22.8279 88.8302 21.4515C88.1635 20.0537 87.8302 18.4193 87.8302 16.5483C87.8302 14.6774 88.1635 13.0537 88.8302 11.6774C89.5184 10.2795 90.4646 9.21502 91.6689 8.48384C92.8732 7.75266 94.228 7.38707 95.7334 7.38707ZM97.1527 11.3548C95.7334 11.3548 94.5936 11.8172 93.7334 12.7419C92.8732 13.6666 92.4431 14.9354 92.4431 16.5483C92.4431 18.1612 92.8732 19.43 93.7334 20.3548C94.5936 21.258 95.7334 21.7096 97.1527 21.7096C98.5291 21.7096 99.6581 21.2472 100.54 20.3225C101.443 19.3763 101.895 18.1182 101.895 16.5483C101.895 14.9569 101.443 13.6989 100.54 12.7742C99.6581 11.8279 98.5291 11.3548 97.1527 11.3548Z" fill="#1A76D1"/>
<path d="M109.694 2.48386C109.694 1.75268 109.952 1.16129 110.468 0.709675C110.984 0.236558 111.662 0 112.5 0C113.339 0 114.017 0.236558 114.533 0.709675C115.049 1.16129 115.307 1.75268 115.307 2.48386C115.307 3.19354 115.049 3.78493 114.533 4.25805C114.017 4.70966 113.339 4.93547 112.5 4.93547C111.662 4.93547 110.984 4.70966 110.468 4.25805C109.952 3.78493 109.694 3.19354 109.694 2.48386ZM114.759 7.61288V25.4838H110.21V7.61288H114.759Z" fill="#1A76D1"/>
</svg>
